<svg width="40" height="40" viewBox="0 0 40 40" fill="none" xmlns="http://www.w3.org/2000/svg">
<circle cx="20" cy="20" r="20" fill="#F4F4F5"/>
<path d="M24.45 14.5501C24.2522 14.5501 24.0589 14.6087 23.8944 14.7186C23.73 14.8285 23.6018 14.9847 23.5261 15.1674C23.4504 15.3501 23.4306 15.5512 23.4692 15.7452C23.5078 15.9392 23.603 16.1173 23.7429 16.2572C23.8828 16.397 24.0609 16.4923 24.2549 16.5309C24.4489 16.5695 24.65 16.5496 24.8327 16.474C25.0154 16.3983 25.1716 16.2701 25.2815 16.1057C25.3914 15.9412 25.45 15.7479 25.45 15.5501C25.45 15.2849 25.3446 15.0305 25.1571 14.843C24.9696 14.6554 24.7152 14.5501 24.45 14.5501ZM28.2833 16.5667C28.2671 15.8753 28.1376 15.1913 27.9 14.5417C27.6881 13.986 27.3583 13.4828 26.9333 13.0667C26.5207 12.6396 26.0163 12.3119 25.4583 12.1084C24.8106 11.8635 24.1257 11.7311 23.4333 11.7167C22.55 11.6667 22.2667 11.6667 20 11.6667C17.7333 11.6667 17.45 11.6667 16.5667 11.7167C15.8743 11.7311 15.1895 11.8635 14.5417 12.1084C13.9847 12.314 13.4808 12.6414 13.0667 13.0667C12.6395 13.4794 12.3118 13.9838 12.1083 14.5417C11.8635 15.1895 11.731 15.8744 11.7167 16.5667C11.6667 17.4501 11.6667 17.7334 11.6667 20.0001C11.6667 22.2667 11.6667 22.5501 11.7167 23.4334C11.731 24.1258 11.8635 24.8106 12.1083 25.4584C12.3118 26.0164 12.6395 26.5208 13.0667 26.9334C13.4808 27.3588 13.9847 27.6862 14.5417 27.8917C15.1895 28.1366 15.8743 28.2691 16.5667 28.2834C17.45 28.3334 17.7333 28.3334 20 28.3334C22.2667 28.3334 22.55 28.3334 23.4333 28.2834C24.1257 28.2691 24.8106 28.1366 25.4583 27.8917C26.0163 27.6883 26.5207 27.3606 26.9333 26.9334C27.3602 26.5189 27.6903 26.0152 27.9 25.4584C28.1376 24.8089 28.2671 24.1248 28.2833 23.4334C28.2833 22.5501 28.3333 22.2667 28.3333 20.0001C28.3333 17.7334 28.3333 17.4501 28.2833 16.5667ZM26.7833 23.3334C26.7773 23.8624 26.6815 24.3865 26.5 24.8834C26.367 25.2461 26.1532 25.5738 25.875 25.8417C25.6047 26.1172 25.2777 26.3304 24.9167 26.4667C24.4198 26.6482 23.8956 26.744 23.3667 26.7501C22.5333 26.7917 22.225 26.8001 20.0333 26.8001C17.8417 26.8001 17.5333 26.8001 16.7 26.7501C16.1507 26.7604 15.6038 26.6758 15.0833 26.5001C14.7382 26.3568 14.4261 26.1441 14.1667 25.8751C13.8901 25.6074 13.679 25.2794 13.55 24.9167C13.3466 24.4127 13.2337 23.8767 13.2167 23.3334C13.2167 22.5001 13.1667 22.1917 13.1667 20.0001C13.1667 17.8084 13.1667 17.5001 13.2167 16.6667C13.2204 16.126 13.3191 15.59 13.5083 15.0834C13.655 14.7317 13.8802 14.4181 14.1667 14.1667C14.4198 13.8802 14.7327 13.6527 15.0833 13.5001C15.5913 13.3168 16.1267 13.221 16.6667 13.2167C17.5 13.2167 17.8083 13.1667 20 13.1667C22.1917 13.1667 22.5 13.1667 23.3333 13.2167C23.8623 13.2228 24.3864 13.3186 24.8833 13.5001C25.262 13.6406 25.6019 13.8691 25.875 14.1667C26.1481 14.4227 26.3615 14.7357 26.5 15.0834C26.6852 15.5909 26.7811 16.1266 26.7833 16.6667C26.825 17.5001 26.8333 17.8084 26.8333 20.0001C26.8333 22.1917 26.825 22.5001 26.7833 23.3334ZM20 15.7251C19.1548 15.7267 18.3291 15.9789 17.6272 16.4496C16.9253 16.9203 16.3787 17.5886 16.0564 18.3699C15.7341 19.1512 15.6506 20.0105 15.8165 20.8392C15.9824 21.6679 16.3902 22.4289 16.9884 23.0259C17.5866 23.6229 18.3483 24.0293 19.1774 24.1935C20.0064 24.3578 20.8656 24.2727 21.6462 23.9489C22.4269 23.6251 23.0941 23.0771 23.5634 22.3743C24.0328 21.6714 24.2833 20.8452 24.2833 20.0001C24.2844 19.4377 24.1743 18.8806 23.9594 18.3609C23.7444 17.8412 23.4288 17.3691 23.0307 16.9718C22.6327 16.5745 22.16 16.2598 21.6398 16.0459C21.1197 15.8319 20.5624 15.7229 20 15.7251ZM20 22.7751C19.4512 22.7751 18.9146 22.6123 18.4583 22.3074C18.002 22.0025 17.6463 21.5691 17.4362 21.062C17.2262 20.555 17.1713 19.997 17.2783 19.4587C17.3854 18.9204 17.6497 18.426 18.0378 18.0379C18.4259 17.6498 18.9203 17.3855 19.4586 17.2784C19.9969 17.1713 20.5549 17.2263 21.062 17.4363C21.569 17.6463 22.0024 18.002 22.3073 18.4584C22.6123 18.9147 22.775 19.4512 22.775 20.0001C22.775 20.3645 22.7032 20.7253 22.5638 21.062C22.4243 21.3987 22.2199 21.7046 21.9622 21.9623C21.7045 22.22 21.3986 22.4244 21.062 22.5638C20.7253 22.7033 20.3644 22.7751 20 22.7751Z" fill="#000929"/>
</svg>
