<svg width="40" height="40" viewBox="0 0 40 40" fill="none" xmlns="http://www.w3.org/2000/svg">
<circle cx="20" cy="20" r="20" fill="#F4F4F5"/>
<path d="M27.0584 11.6669H12.9417C12.783 11.6647 12.6255 11.6937 12.478 11.7524C12.3306 11.8111 12.1961 11.8983 12.0824 12.009C11.9686 12.1196 11.8778 12.2516 11.815 12.3974C11.7523 12.5431 11.7189 12.6998 11.7167 12.8585V27.1419C11.7189 27.3005 11.7523 27.4573 11.815 27.603C11.8778 27.7488 11.9686 27.8808 12.0824 27.9914C12.1961 28.1021 12.3306 28.1893 12.478 28.248C12.6255 28.3067 12.783 28.3357 12.9417 28.3335H27.0584C27.2171 28.3357 27.3746 28.3067 27.5221 28.248C27.6695 28.1893 27.804 28.1021 27.9177 27.9914C28.0315 27.8808 28.1223 27.7488 28.185 27.603C28.2478 27.4573 28.2812 27.3005 28.2834 27.1419V12.8585C28.2812 12.6998 28.2478 12.5431 28.185 12.3974C28.1223 12.2516 28.0315 12.1196 27.9177 12.009C27.804 11.8983 27.6695 11.8111 27.5221 11.7524C27.3746 11.6937 27.2171 11.6647 27.0584 11.6669ZM16.7417 25.6169H14.2417V18.1169H16.7417V25.6169ZM15.4917 17.0669C15.1469 17.0669 14.8163 16.9299 14.5725 16.6861C14.3287 16.4423 14.1917 16.1116 14.1917 15.7669C14.1917 15.4221 14.3287 15.0914 14.5725 14.8476C14.8163 14.6038 15.1469 14.4669 15.4917 14.4669C15.6748 14.4461 15.8602 14.4642 16.0358 14.5201C16.2113 14.576 16.3732 14.6683 16.5106 14.791C16.648 14.9137 16.758 15.0641 16.8333 15.2323C16.9086 15.4004 16.9475 15.5826 16.9475 15.7669C16.9475 15.9511 16.9086 16.1333 16.8333 16.3015C16.758 16.4696 16.648 16.62 16.5106 16.7427C16.3732 16.8655 16.2113 16.9578 16.0358 17.0136C15.8602 17.0695 15.6748 17.0876 15.4917 17.0669ZM25.7584 25.6169H23.2584V21.5919C23.2584 20.5835 22.9 19.9252 21.9917 19.9252C21.7106 19.9273 21.4369 20.0154 21.2074 20.1778C20.9779 20.3403 20.8038 20.5691 20.7084 20.8335C20.6432 21.0294 20.6149 21.2357 20.625 21.4419V25.6085H18.125C18.125 25.6085 18.125 18.7919 18.125 18.1085H20.625V19.1669C20.8521 18.7728 21.1825 18.4481 21.5804 18.2279C21.9784 18.0076 22.4288 17.9001 22.8834 17.9169C24.55 17.9169 25.7584 18.9919 25.7584 21.3002V25.6169Z" fill="#000929"/>
</svg>
