<svg width="40" height="40" viewBox="0 0 40 40" fill="none" xmlns="http://www.w3.org/2000/svg">
<circle cx="20" cy="20" r="20" fill="#F4F4F5"/>
<path d="M28.3333 14.8335C27.7069 15.1053 27.0445 15.2849 26.3667 15.3668C27.0818 14.9396 27.6177 14.2675 27.875 13.4752C27.203 13.8752 26.4673 14.1571 25.7 14.3085C25.1871 13.7523 24.5041 13.3821 23.7582 13.2559C23.0122 13.1297 22.2454 13.2546 21.5781 13.6112C20.9109 13.9677 20.3808 14.5356 20.071 15.2259C19.7613 15.9161 19.6894 16.6897 19.8667 17.4252C18.5078 17.3564 17.1787 17.0026 15.9655 16.3867C14.7524 15.7708 13.6824 14.9066 12.825 13.8502C12.5243 14.3753 12.3663 14.97 12.3667 15.5752C12.3656 16.1372 12.5035 16.6907 12.7681 17.1865C13.0327 17.6823 13.4158 18.1049 13.8833 18.4168C13.34 18.4021 12.8082 18.2563 12.3333 17.9918V18.0335C12.3374 18.8209 12.6133 19.5828 13.1144 20.1901C13.6155 20.7975 14.311 21.2132 15.0833 21.3668C14.786 21.4573 14.4774 21.505 14.1667 21.5085C13.9516 21.506 13.737 21.4865 13.525 21.4502C13.7449 22.1275 14.1705 22.7195 14.7426 23.1436C15.3146 23.5678 16.0046 23.8031 16.7167 23.8168C15.5143 24.7629 14.0299 25.2792 12.5 25.2835C12.2214 25.2844 11.9431 25.2677 11.6667 25.2335C13.2287 26.2421 15.049 26.7774 16.9083 26.7752C18.1914 26.7885 19.4643 26.546 20.6526 26.0619C21.8409 25.5778 22.9208 24.8617 23.8293 23.9556C24.7378 23.0494 25.4566 21.9713 25.9438 20.7843C26.4309 19.5972 26.6767 18.3249 26.6667 17.0418C26.6667 16.9002 26.6667 16.7502 26.6667 16.6002C27.3206 16.1125 27.8846 15.5147 28.3333 14.8335Z" fill="#000929"/>
</svg>
