<svg width="105" height="33" viewBox="0 0 105 33" fill="none" xmlns="http://www.w3.org/2000/svg">
<path d="M36.72 24.24C34.96 24.24 33.448 23.888 32.184 23.184C30.936 22.464 29.976 21.456 29.304 20.16C28.632 18.848 28.296 17.304 28.296 15.528C28.296 14.2 28.488 13.008 28.872 11.952C29.256 10.88 29.808 9.968 30.528 9.216C31.248 8.448 32.128 7.864 33.168 7.464C34.224 7.048 35.408 6.84 36.72 6.84C37.6 6.84 38.464 6.952 39.312 7.176C40.16 7.4 40.904 7.72 41.544 8.136C41.88 8.344 42.104 8.6 42.216 8.904C42.328 9.192 42.352 9.48 42.288 9.768C42.224 10.04 42.088 10.272 41.88 10.464C41.688 10.656 41.44 10.768 41.136 10.8C40.848 10.816 40.528 10.712 40.176 10.488C39.68 10.168 39.144 9.936 38.568 9.792C37.992 9.648 37.408 9.576 36.816 9.576C35.68 9.576 34.72 9.808 33.936 10.272C33.152 10.736 32.56 11.408 32.16 12.288C31.76 13.168 31.56 14.248 31.56 15.528C31.56 16.792 31.76 17.872 32.16 18.768C32.56 19.664 33.152 20.344 33.936 20.808C34.72 21.272 35.68 21.504 36.816 21.504C37.424 21.504 38.024 21.432 38.616 21.288C39.208 21.128 39.768 20.888 40.296 20.568C40.648 20.36 40.96 20.272 41.232 20.304C41.52 20.32 41.76 20.416 41.952 20.592C42.144 20.768 42.272 20.992 42.336 21.264C42.4 21.52 42.384 21.792 42.288 22.08C42.192 22.352 42 22.592 41.712 22.8C41.072 23.264 40.304 23.624 39.408 23.88C38.528 24.12 37.632 24.24 36.72 24.24ZM49.3808 24.24C48.1648 24.24 47.1088 23.992 46.2128 23.496C45.3168 23 44.6208 22.296 44.1248 21.384C43.6288 20.456 43.3808 19.368 43.3808 18.12C43.3808 17.176 43.5168 16.336 43.7888 15.6C44.0768 14.848 44.4848 14.208 45.0128 13.68C45.5408 13.136 46.1728 12.728 46.9088 12.456C47.6448 12.168 48.4688 12.024 49.3808 12.024C50.5968 12.024 51.6528 12.272 52.5488 12.768C53.4448 13.264 54.1408 13.968 54.6368 14.88C55.1328 15.792 55.3808 16.872 55.3808 18.12C55.3808 19.064 55.2368 19.912 54.9488 20.664C54.6768 21.416 54.2768 22.064 53.7488 22.608C53.2208 23.136 52.5888 23.544 51.8528 23.832C51.1168 24.104 50.2928 24.24 49.3808 24.24ZM49.3808 21.96C49.9728 21.96 50.4928 21.816 50.9408 21.528C51.3888 21.24 51.7328 20.816 51.9728 20.256C52.2288 19.68 52.3568 18.968 52.3568 18.12C52.3568 16.84 52.0848 15.888 51.5408 15.264C50.9968 14.624 50.2768 14.304 49.3808 14.304C48.7888 14.304 48.2688 14.448 47.8208 14.736C47.3728 15.008 47.0208 15.432 46.7648 16.008C46.5248 16.568 46.4048 17.272 46.4048 18.12C46.4048 19.384 46.6768 20.344 47.2208 21C47.7648 21.64 48.4848 21.96 49.3808 21.96ZM62.1049 24.24C61.1289 24.24 60.3209 24.064 59.6809 23.712C59.0409 23.344 58.5609 22.8 58.2409 22.08C57.9369 21.36 57.7849 20.464 57.7849 19.392V13.584C57.7849 13.072 57.9129 12.696 58.1689 12.456C58.4249 12.2 58.7929 12.072 59.2729 12.072C59.7529 12.072 60.1209 12.2 60.3769 12.456C60.6489 12.696 60.7849 13.072 60.7849 13.584V19.44C60.7849 20.272 60.9529 20.888 61.2889 21.288C61.6249 21.688 62.1609 21.888 62.8969 21.888C63.6969 21.888 64.3529 21.616 64.8649 21.072C65.3769 20.512 65.6329 19.776 65.6329 18.864V13.584C65.6329 13.072 65.7609 12.696 66.0169 12.456C66.2729 12.2 66.6409 12.072 67.1209 12.072C67.6009 12.072 67.9689 12.2 68.2249 12.456C68.4969 12.696 68.6329 13.072 68.6329 13.584V22.656C68.6329 23.68 68.1449 24.192 67.1689 24.192C66.7049 24.192 66.3449 24.064 66.0889 23.808C65.8329 23.536 65.7049 23.152 65.7049 22.656V20.832L66.0409 21.552C65.7049 22.416 65.1929 23.08 64.5049 23.544C63.8329 24.008 63.0329 24.24 62.1049 24.24ZM73.2433 28.512C72.7633 28.512 72.3953 28.384 72.1393 28.128C71.8833 27.872 71.7553 27.496 71.7553 27V13.584C71.7553 13.088 71.8833 12.712 72.1393 12.456C72.3953 12.2 72.7553 12.072 73.2193 12.072C73.6993 12.072 74.0673 12.2 74.3233 12.456C74.5793 12.712 74.7073 13.088 74.7073 13.584V15.456L74.4433 14.736C74.6833 13.92 75.1713 13.264 75.9073 12.768C76.6593 12.272 77.5313 12.024 78.5233 12.024C79.5473 12.024 80.4433 12.272 81.2113 12.768C81.9953 13.264 82.6033 13.968 83.0353 14.88C83.4673 15.776 83.6833 16.856 83.6833 18.12C83.6833 19.368 83.4673 20.456 83.0353 21.384C82.6033 22.296 82.0033 23 81.2353 23.496C80.4673 23.992 79.5633 24.24 78.5233 24.24C77.5473 24.24 76.6913 24 75.9553 23.52C75.2193 23.024 74.7233 22.384 74.4673 21.6H74.7553V27C74.7553 27.496 74.6193 27.872 74.3473 28.128C74.0913 28.384 73.7233 28.512 73.2433 28.512ZM77.6833 21.96C78.2753 21.96 78.7953 21.816 79.2433 21.528C79.6913 21.24 80.0353 20.816 80.2753 20.256C80.5313 19.68 80.6593 18.968 80.6593 18.12C80.6593 16.84 80.3873 15.888 79.8433 15.264C79.2993 14.624 78.5793 14.304 77.6833 14.304C77.0913 14.304 76.5713 14.448 76.1233 14.736C75.6753 15.008 75.3233 15.432 75.0673 16.008C74.8273 16.568 74.7073 17.272 74.7073 18.12C74.7073 19.384 74.9793 20.344 75.5233 21C76.0673 21.64 76.7873 21.96 77.6833 21.96ZM90.1539 24.24C88.8259 24.24 87.8259 23.864 87.1539 23.112C86.4819 22.344 86.1459 21.224 86.1459 19.752V8.4C86.1459 7.904 86.2739 7.528 86.5299 7.272C86.7859 7.016 87.1539 6.888 87.6339 6.888C88.1139 6.888 88.4819 7.016 88.7379 7.272C89.0099 7.528 89.1459 7.904 89.1459 8.4V19.608C89.1459 20.344 89.2979 20.888 89.6019 21.24C89.9219 21.592 90.3699 21.768 90.9459 21.768C91.0739 21.768 91.1939 21.768 91.3059 21.768C91.4179 21.752 91.5299 21.736 91.6419 21.72C91.8659 21.688 92.0179 21.752 92.0979 21.912C92.1779 22.056 92.2179 22.36 92.2179 22.824C92.2179 23.224 92.1379 23.536 91.9779 23.76C91.8179 23.984 91.5539 24.12 91.1859 24.168C91.0259 24.184 90.8579 24.2 90.6819 24.216C90.5059 24.232 90.3299 24.24 90.1539 24.24ZM96.4813 28.512C96.1293 28.512 95.8413 28.416 95.6173 28.224C95.3933 28.048 95.2573 27.808 95.2093 27.504C95.1773 27.2 95.2333 26.88 95.3773 26.544L97.0093 22.92V24.168L92.6413 14.064C92.4973 13.712 92.4493 13.384 92.4973 13.08C92.5453 12.776 92.6893 12.536 92.9293 12.36C93.1853 12.168 93.5293 12.072 93.9613 12.072C94.3293 12.072 94.6253 12.16 94.8493 12.336C95.0733 12.496 95.2733 12.808 95.4493 13.272L98.6893 21.36H97.9693L101.281 13.248C101.457 12.8 101.665 12.496 101.905 12.336C102.145 12.16 102.465 12.072 102.865 12.072C103.217 12.072 103.497 12.168 103.705 12.36C103.913 12.536 104.041 12.776 104.089 13.08C104.137 13.368 104.081 13.688 103.921 14.04L98.0893 27.36C97.8813 27.808 97.6573 28.112 97.4173 28.272C97.1773 28.432 96.8653 28.512 96.4813 28.512Z" fill="black"/>
<g clip-path="url(#clip0_591_576)">
<path d="M11.1912 24.375L2.625 15.8087V17.5587C2.625 18.0225 2.80875 18.4687 3.14125 18.7925L9.9575 25.6087C10.64 26.2912 11.7513 26.2912 12.4338 25.6087L17.8675 20.175C18.55 19.4925 18.55 18.3812 17.8675 17.6987L11.1912 24.375Z" fill="black"/>
<path d="M9.9575 21.2337C10.64 21.9162 11.7513 21.9162 12.4338 21.2337L17.8675 15.8C18.55 15.1175 18.55 14.0063 17.8675 13.3238L11.0513 6.5075C10.7189 6.18314 10.2732 6.00109 9.80875 6H4.375C3.4125 6 2.625 6.7875 2.625 7.75V13.1838C2.625 13.6475 2.80875 14.0938 3.14125 14.4175L9.9575 21.2337ZM6.34375 8.625C6.63383 8.625 6.91203 8.74023 7.11715 8.94535C7.32227 9.15047 7.4375 9.42867 7.4375 9.71875C7.4375 10.0088 7.32227 10.287 7.11715 10.4921C6.91203 10.6973 6.63383 10.8125 6.34375 10.8125C6.05367 10.8125 5.77547 10.6973 5.57035 10.4921C5.36523 10.287 5.25 10.0088 5.25 9.71875C5.25 9.42867 5.36523 9.15047 5.57035 8.94535C5.77547 8.74023 6.05367 8.625 6.34375 8.625Z" fill="black"/>
</g>
<defs>
<clipPath id="clip0_591_576">
<rect width="21" height="21" fill="white" transform="translate(0 6)"/>
</clipPath>
</defs>
</svg>
